<?xml version="1.0" encoding="utf-8"?>
<!-- Generator: Adobe Illustrator 18.1.1, SVG Export Plug-In . SVG Version: 6.00 Build 0)  -->
<svg version="1.1" id="Layer_1" xmlns="http://www.w3.org/2000/svg" xmlns:xlink="http://www.w3.org/1999/xlink" x="0px" y="0px"
	 viewBox="0 565.3 800.3 149.1" enable-background="new 0 565.3 800.3 149.1" xml:space="preserve">
<g>
	<path d="M11.8,593.5v119.1H0V573.2h12.4l81.5,120v-120h11.8v139.7H93.3L11.8,593.5z"/>
	<path d="M126.4,581.4c0-5.5,4.2-9.4,9.4-9.4s9.4,3.9,9.4,9.4s-4.2,9.4-9.4,9.4S126.4,586.8,126.4,581.4z M141.5,712.9h-11.8V604.7
		h11.8V712.9z"/>
	<path d="M256.1,691.7c-4.8,9.4-19.4,22.7-42.1,22.7c-31.8,0-54.8-22.4-54.8-55.8c0-32.4,23.6-55.8,54.8-55.8
		c18.8,0,34.8,9.4,42.1,21.5v-19.7h11.8v107.9h-11.8V691.7z M213.9,704.1c24.8,0,42.7-18.5,42.7-45.2c0-26.4-17.9-45.5-42.7-45.5
		s-42.7,19.1-42.7,45.5C171.2,685.6,189.1,704.1,213.9,704.1z"/>
	<path d="M302.7,712.9h-11.8V565.3h11.8V712.9z"/>
	<path d="M337.9,712.9h-11.8V565.3h11.8V712.9z"/>
	<path d="M494.5,712.9h-11.8v-67.6h-77v67.3h-11.8V573.2h11.8v61.2h77v-61.2h11.8V712.9z"/>
	<path d="M524.8,662.3c1.5,25.8,17.6,41.8,42.1,41.8c20.3,0,32.1-10,40-27l9.1,3.9c-7.6,19.1-24.5,33.3-49.1,33.3
		c-32.1,0-54.2-22.4-54.2-55.8c0-32.7,22.1-55.8,52.7-55.8c30.9,0,51.8,20,52.7,52.4c0,1.5,0,4.5-0.3,6.7h-93V662.3z M525.2,652
		h80.6c-0.9-24.8-17.9-38.5-40.6-38.5C543.3,613.5,527.6,627.7,525.2,652z"/>
	<path d="M693.9,642.3c0-17.9-7.6-28.2-23.3-28.2c-16.1,0-24.5,11.8-24.5,29.4v69.4h-11.8V604.7h11.8v11.2
		c3.3-5.8,12.1-12.4,25.8-12.4c24.2,0,33.9,16.7,33.9,37.6v71.5h-11.8V642.3z"/>
	<path d="M788.5,642.3c0-17.9-7.6-28.2-23.3-28.2c-16.1,0-24.5,11.8-24.5,29.4v69.4h-11.8V604.7h11.8v11.2
		c3.3-5.8,12.1-12.4,25.8-12.4c24.2,0,33.9,16.7,33.9,37.6v71.5h-11.8V642.3z"/>
</g>
</svg>
