<?xml version="1.0" encoding="utf-8"?>
<!-- Generator: Adobe Illustrator 18.1.1, SVG Export Plug-In . SVG Version: 6.00 Build 0)  -->
<svg version="1.1" id="Layer_1" xmlns="http://www.w3.org/2000/svg" xmlns:xlink="http://www.w3.org/1999/xlink" x="0px" y="0px"
	 viewBox="0 0 264 49.3" enable-background="new 0 0 264 49.3" xml:space="preserve">
<g>
	<path d="M3.9,9.3v39.3H0V2.6h4.1L31,42.2V2.6h3.9v46.1h-4.1L3.9,9.3z"/>
	<path d="M41.7,5.3c0-1.8,1.4-3.1,3.1-3.1s3.1,1.3,3.1,3.1s-1.4,3.1-3.1,3.1S41.7,7.1,41.7,5.3z M46.7,48.7h-3.9V13h3.9V48.7z"/>
	<path d="M84.5,41.7c-1.6,3.1-6.4,7.5-13.9,7.5c-10.5,0-18.1-7.4-18.1-18.4c0-10.7,7.8-18.4,18.1-18.4c6.2,0,11.5,3.1,13.9,7.1V13
		h3.9v35.6h-3.9V41.7z M70.6,45.8c8.2,0,14.1-6.1,14.1-14.9c0-8.7-5.9-15-14.1-15s-14.1,6.3-14.1,15C56.5,39.7,62.4,45.8,70.6,45.8z
		"/>
	<path d="M99.9,48.7h-3.9V0h3.9V48.7z"/>
	<path d="M111.5,48.7h-3.9V0h3.9V48.7z"/>
	<path d="M163.2,48.7h-3.9V26.4h-25.4v22.2h-3.9V2.6h3.9v20.2h25.4V2.6h3.9V48.7z"/>
	<path d="M173.2,32c0.5,8.5,5.8,13.8,13.9,13.8c6.7,0,10.6-3.3,13.2-8.9l3,1.3c-2.5,6.3-8.1,11-16.2,11c-10.6,0-17.9-7.4-17.9-18.4
		c0-10.8,7.3-18.4,17.4-18.4c10.2,0,17.1,6.6,17.4,17.3c0,0.5,0,1.5-0.1,2.2H173.2z M173.3,28.6h26.6c-0.3-8.2-5.9-12.7-13.4-12.7
		C179.3,15.9,174.1,20.6,173.3,28.6z"/>
	<path d="M229,25.4c0-5.9-2.5-9.3-7.7-9.3c-5.3,0-8.1,3.9-8.1,9.7v22.9h-3.9V13h3.9v3.7c1.1-1.9,4-4.1,8.5-4.1
		c8,0,11.2,5.5,11.2,12.4v23.6H229V25.4z"/>
	<path d="M260.2,25.4c0-5.9-2.5-9.3-7.7-9.3c-5.3,0-8.1,3.9-8.1,9.7v22.9h-3.9V13h3.9v3.7c1.1-1.9,4-4.1,8.5-4.1
		c8,0,11.2,5.5,11.2,12.4v23.6h-3.9V25.4z"/>
</g>
</svg>
